<?xml version="1.0" encoding="iso-8859-1"?>
<!-- Generator: Adobe Illustrator 19.2.1, SVG Export Plug-In . SVG Version: 6.00 Build 0)  -->
<svg version="1.1" id="Layer_1" xmlns="http://www.w3.org/2000/svg" xmlns:xlink="http://www.w3.org/1999/xlink" x="0px" y="0px"
	 viewBox="0 0 1680 949" style="enable-background:new 0 0 1680 949;" xml:space="preserve">
<g>
	
		<image style="overflow:visible;opacity:0.1;" width="665" height="196" xlink:href="F57401D961A2E1B.png"  transform="matrix(0.24 0 0 0.24 87.0264 69.1187)">
	</image>
	<g>
		<g>
			<g>
				<rect x="134.526" y="77.119" style="fill:#F7E611;" width="100" height="5"/>
			</g>
			<g>
				<rect x="99.026" y="95.079" style="fill:#F7E611;" width="100" height="5"/>
			</g>
		</g>
	</g>
</g>
<g>
	
		<image style="overflow:visible;opacity:0.1;" width="665" height="196" xlink:href="F57401D961A2E19.png"  transform="matrix(0.24 0 0 0.24 169.2764 751.4407)">
	</image>
	<g>
		<g>
			<g>
				<rect x="216.776" y="759.441" style="fill:#F7E611;" width="100" height="5"/>
			</g>
			<g>
				<rect x="181.276" y="777.401" style="fill:#F7E611;" width="100" height="5"/>
			</g>
		</g>
	</g>
</g>
<g>
	
		<image style="overflow:visible;opacity:0.1;" width="665" height="196" xlink:href="F57401D961A2E1F.png"  transform="matrix(0.24 0 0 0.24 1187.0264 472)">
	</image>
	<g>
		<g>
			<g>
				<rect x="1234.526" y="480" style="fill:#F7E611;" width="100" height="5"/>
			</g>
			<g>
				<rect x="1199.026" y="497.96" style="fill:#F7E611;" width="100" height="5"/>
			</g>
		</g>
	</g>
</g>
<g>
	
		<image style="overflow:visible;opacity:0.1;" width="665" height="196" xlink:href="F57401D961A2E18.png"  transform="matrix(0.24 0 0 0.24 743.0264 876)">
	</image>
	<g>
		<g>
			<g>
				<rect x="790.526" y="884" style="fill:#F7E611;" width="100" height="5"/>
			</g>
			<g>
				<rect x="755.026" y="901.96" style="fill:#F7E611;" width="100" height="5"/>
			</g>
		</g>
	</g>
</g>
<g>
	
		<image style="overflow:visible;opacity:0.1;" width="665" height="196" xlink:href="F57401D961A2E16.png"  transform="matrix(0.24 0 0 0.24 1064.0264 789.5593)">
	</image>
	<g>
		<g>
			<g>
				<rect x="1111.526" y="797.559" style="fill:#F7E611;" width="100" height="5"/>
			</g>
			<g>
				<rect x="1076.026" y="815.52" style="fill:#F7E611;" width="100" height="5"/>
			</g>
		</g>
	</g>
</g>
<g>
	
		<image style="overflow:visible;opacity:0.1;" width="665" height="196" xlink:href="F57401D961A2E17.png"  transform="matrix(0.24 0 0 0.24 1151.5264 179.1073)">
	</image>
	<g>
		<g>
			<g>
				<rect x="1199.026" y="187.107" style="fill:#F7E611;" width="100" height="5"/>
			</g>
			<g>
				<rect x="1163.526" y="205.068" style="fill:#F7E611;" width="100" height="5"/>
			</g>
		</g>
	</g>
</g>
<g>
	
		<image style="overflow:visible;opacity:0.1;" width="665" height="196" xlink:href="F57401D961A2E27.png"  transform="matrix(0.24 0 0 0.24 355.0264 172.6271)">
	</image>
	<g>
		<g>
			<g>
				<rect x="402.526" y="180.627" style="fill:#509587;" width="100" height="5"/>
			</g>
			<g>
				<rect x="367.026" y="198.588" style="fill:#509587;" width="100" height="5"/>
			</g>
		</g>
	</g>
</g>
<g>
	
		<image style="overflow:visible;opacity:0.1;" width="665" height="196" xlink:href="F57401D961A2E29.png"  transform="matrix(0.24 0 0 0.24 29.0264 349.0396)">
	</image>
	<g>
		<g>
			<g>
				<rect x="76.526" y="357.04" style="fill:#509587;" width="100" height="5"/>
			</g>
			<g>
				<rect x="41.026" y="375" style="fill:#509587;" width="100" height="5"/>
			</g>
		</g>
	</g>
</g>
<g>
	
		<image style="overflow:visible;opacity:0.1;" width="665" height="196" xlink:href="F57401D961A2E2B.png"  transform="matrix(0.24 0 0 0.24 946.2764 48.6582)">
	</image>
	<g>
		<g>
			<g>
				<rect x="993.776" y="56.658" style="fill:#509587;" width="100" height="5"/>
			</g>
			<g>
				<rect x="958.276" y="74.619" style="fill:#509587;" width="100" height="5"/>
			</g>
		</g>
	</g>
</g>
<g>
	
		<image style="overflow:visible;opacity:0.1;" width="665" height="196" xlink:href="379C4446B1C8A9F8.png"  transform="matrix(0.24 0 0 0.24 458.0264 541.0396)">
	</image>
	<g>
		<g>
			<g>
				<rect x="505.526" y="549.04" style="fill:#509587;" width="100" height="5"/>
			</g>
			<g>
				<rect x="470.026" y="567" style="fill:#509587;" width="100" height="5"/>
			</g>
		</g>
	</g>
</g>
<g>
	
		<image style="overflow:visible;opacity:0.1;" width="665" height="196" xlink:href="379C4446B1C8A9FF.png"  transform="matrix(0.24 0 0 0.24 1448.0264 199)">
	</image>
	<g>
		<g>
			<g>
				<rect x="1495.526" y="207" style="fill:#509587;" width="100" height="5"/>
			</g>
			<g>
				<rect x="1460.026" y="224.96" style="fill:#509587;" width="100" height="5"/>
			</g>
		</g>
	</g>
</g>
<g>
	
		<image style="overflow:visible;opacity:0.1;" width="665" height="196" xlink:href="379C4446B1C8A9F9.png"  transform="matrix(0.24 0 0 0.24 1398.0264 624.0396)">
	</image>
	<g>
		<g>
			<g>
				<rect x="1445.526" y="632.04" style="fill:#509587;" width="100" height="5"/>
			</g>
			<g>
				<rect x="1410.026" y="650" style="fill:#509587;" width="100" height="5"/>
			</g>
		</g>
	</g>
</g>
<g>
	
		<image style="overflow:visible;opacity:0.1;" width="665" height="196" xlink:href="379C4446B1C8A9FB.png"  transform="matrix(0.24 0 0 0.24 921.0264 345)">
	</image>
	<g>
		<g>
			<g>
				<rect x="968.526" y="353" style="fill:#509587;" width="100" height="5"/>
			</g>
			<g>
				<rect x="933.026" y="370.96" style="fill:#509587;" width="100" height="5"/>
			</g>
		</g>
	</g>
</g>
<g>
	
		<image style="overflow:visible;opacity:0.1;" width="665" height="196" xlink:href="379C4446B1C8A9E6.png"  transform="matrix(0.24 0 0 0.24 759.2764 675.25)">
	</image>
	<g>
		<g>
			<g>
				<rect x="806.776" y="683.25" style="fill:#509587;" width="100" height="5"/>
			</g>
			<g>
				<rect x="771.276" y="701.21" style="fill:#509587;" width="100" height="5"/>
			</g>
		</g>
	</g>
</g>
<g>
	
		<image style="overflow:visible;opacity:0.1;" width="665" height="196" xlink:href="379C4446B1C8A9E7.png"  transform="matrix(0.24 0 0 0.24 643.0264 98.5593)">
	</image>
	<g>
		<g>
			<g>
				<rect x="690.526" y="106.559" style="fill:#9B5EA5;" width="100" height="5"/>
			</g>
			<g>
				<rect x="655.026" y="124.52" style="fill:#9B5EA5;" width="100" height="5"/>
			</g>
		</g>
	</g>
</g>
<g>
	
		<image style="overflow:visible;opacity:0.1;" width="665" height="196" xlink:href="379C4446B1C8A9E8.png"  transform="matrix(0.24 0 0 0.24 1583.5264 25.6978)">
	</image>
	<g>
		<g>
			<g>
				<rect x="1631.026" y="33.698" style="fill:#9B5EA5;" width="100" height="5"/>
			</g>
			<g>
				<rect x="1595.526" y="51.658" style="fill:#9B5EA5;" width="100" height="5"/>
			</g>
		</g>
	</g>
</g>
<g>
	
		<image style="overflow:visible;opacity:0.1;" width="665" height="196" xlink:href="379C4446B1C8A9EB.png"  transform="matrix(0.24 0 0 0.24 96.7764 428.0396)">
	</image>
	<g>
		<g>
			<g>
				<rect x="144.276" y="436.04" style="fill:#9B5EA5;" width="100" height="5"/>
			</g>
			<g>
				<rect x="108.776" y="454" style="fill:#9B5EA5;" width="100" height="5"/>
			</g>
		</g>
	</g>
</g>
<g>
	
		<image style="overflow:visible;opacity:0.1;" width="665" height="196" xlink:href="379C4446B1C8A9E9.png"  transform="matrix(0.24 0 0 0.24 292.7764 322.0396)">
	</image>
	<g>
		<g>
			<g>
				<rect x="340.276" y="330.04" style="fill:#9B5EA5;" width="100" height="5"/>
			</g>
			<g>
				<rect x="304.776" y="348" style="fill:#9B5EA5;" width="100" height="5"/>
			</g>
		</g>
	</g>
</g>
<g>
	
		<image style="overflow:visible;opacity:0.1;" width="665" height="196" xlink:href="379C4446B1C8A9EF.png"  transform="matrix(0.24 0 0 0.24 -56.4736 853.0396)">
	</image>
	<g>
		<g>
			<g>
				<rect x="-8.974" y="861.04" style="fill:#9B5EA5;" width="100" height="5"/>
			</g>
			<g>
				<rect x="-44.474" y="879" style="fill:#9B5EA5;" width="100" height="5"/>
			</g>
		</g>
	</g>
</g>
<g>
	
		<image style="overflow:visible;opacity:0.1;" width="665" height="196" xlink:href="379C4446B1C8AA03.png"  transform="matrix(0.24 0 0 0.24 482.5264 801.0396)">
	</image>
	<g>
		<g>
			<g>
				<rect x="530.026" y="809.04" style="fill:#9B5EA5;" width="100" height="5"/>
			</g>
			<g>
				<rect x="494.526" y="827" style="fill:#9B5EA5;" width="100" height="5"/>
			</g>
		</g>
	</g>
</g>
<g>
	
		<image style="overflow:visible;opacity:0.1;" width="665" height="196" xlink:href="379C4446B1C8AA0D.png"  transform="matrix(0.24 0 0 0.24 678.5264 416.5593)">
	</image>
	<g>
		<g>
			<g>
				<rect x="726.026" y="424.559" style="fill:#9B5EA5;" width="100" height="5"/>
			</g>
			<g>
				<rect x="690.526" y="442.52" style="fill:#9B5EA5;" width="100" height="5"/>
			</g>
		</g>
	</g>
</g>
<g>
	
		<image style="overflow:visible;opacity:0.1;" width="665" height="196" xlink:href="379C4446B1C8AA0F.png"  transform="matrix(0.24 0 0 0.24 1583.5264 769.4011)">
	</image>
	<g>
		<g>
			<g>
				<rect x="1631.026" y="777.401" style="fill:#9B5EA5;" width="100" height="5"/>
			</g>
			<g>
				<rect x="1595.526" y="795.362" style="fill:#9B5EA5;" width="100" height="5"/>
			</g>
		</g>
	</g>
</g>
</svg>
