<?xml version="1.0" encoding="UTF-8"?>
<svg width="159px" height="30px" viewBox="0 0 159 30" version="1.1" xmlns="http://www.w3.org/2000/svg" xmlns:xlink="http://www.w3.org/1999/xlink">
    <!-- Generator: Sketch 47.1 (45422) - http://www.bohemiancoding.com/sketch -->
    <title>logo-color</title>
    <desc>Created with Sketch.</desc>
    <defs></defs>
    <g id="Page-1" stroke="none" stroke-width="1" fill="none" fill-rule="evenodd">
        <g id="logo-color" transform="translate(0.000000, -1.000000)" fill-rule="nonzero">
            <g id="Group">
                <rect id="Rectangle-path" fill="#73CCF3" transform="translate(14.902670, 8.420440) rotate(135.000000) translate(-14.902670, -8.420440) " x="9.65272035" y="3.17049035" width="10.4998993" height="10.4998993"></rect>
                <rect id="Rectangle-path" fill="#1AB5E9" transform="translate(22.339790, 15.877340) rotate(135.000000) translate(-22.339790, -15.877340) " x="17.0898403" y="10.6273903" width="10.4998993" height="10.4998993"></rect>
                <rect id="Rectangle-path" fill="#0C6DB6" transform="translate(14.909395, 23.275515) rotate(135.004051) translate(-14.909395, -23.275515) " x="9.6590741" y="18.0251941" width="10.5006418" height="10.5006418"></rect>
                <rect id="Rectangle-path" fill="#079BC7" transform="translate(7.453670, 15.877360) rotate(135.000000) translate(-7.453670, -15.877360) " x="2.20372035" y="10.6274103" width="10.4998993" height="10.4998993"></rect>
            </g>
            <g id="Group" transform="translate(39.000000, 8.000000)" fill="#FFFFFF">
                <polygon id="Shape" points="0.8 0.2 4.7 0.2 9 7.1 13.3 0.2 17.2 0.2 17.2 16.5 13.6 16.5 13.6 5.9 9 12.8 8.9 12.8 4.4 5.9 4.4 16.5 0.9 16.5"></polygon>
                <path d="M20.5,0.2 L32.8,0.2 L32.8,3.4 L24,3.4 L24,6.7 L31.7,6.7 L31.7,9.9 L24,9.9 L24,13.3 L32.8,13.3 L32.8,16.5 L20.5,16.5 C20.5,16.6 20.5,0.2 20.5,0.2 Z" id="Shape"></path>
                <path d="M35.6,0.2 L42,0.2 C47.1,0.2 50.6,3.7 50.6,8.3 L50.6,8.3 C50.6,12.9 47,16.4 42,16.4 L35.6,16.4 L35.6,0.2 Z M39.2,3.5 L39.2,13.3 L42,13.3 C44.9,13.3 46.9,11.3 46.9,8.4 L46.9,8.4 C46.9,5.5 44.9,3.5 42,3.5 C42,3.5 39.2,3.5 39.2,3.5 Z" id="Shape"></path>
                <path d="M57.6,0.1 L60.9,0.1 L67.9,16.5 L64.2,16.5 L62.7,12.9 L55.8,12.9 L54.3,16.5 L50.7,16.5 L57.6,0.1 Z M61.4,9.7 L59.3,4.4 L57.2,9.7 L61.4,9.7 Z" id="Shape"></path>
                <polygon id="Shape" points="69.6 0.2 73.2 0.2 73.2 13.2 81.3 13.2 81.3 16.4 69.6 16.4 69.6 0.2"></polygon>
                <polygon id="Shape" points="83.1 0.2 86.7 0.2 86.7 13.2 94.8 13.2 94.8 16.4 83.1 16.4 83.1 0.2"></polygon>
                <polygon id="Shape" points="96.7 0.2 100.3 0.2 100.3 16.5 96.7 16.5"></polygon>
                <path d="M109,0.1 L112.3,0.1 L119.3,16.5 L115.6,16.5 L114.1,12.9 L107.2,12.9 L105.7,16.5 L102,16.5 L109,0.1 Z M112.7,9.7 L110.6,4.4 L108.5,9.7 L112.7,9.7 Z" id="Shape"></path>
            </g>
        </g>
    </g>
</svg>